{"title":"Full Metal Jacket (1987) DVDRip XviD AC3 peaSoup","uid":8959009,"size":734109696,"categoryP":"video","categoryS":"movies","magnet":"?xt=urn:btih:cfc5743633dff568b0956cfe5c0f8086b1b29273&amp;dn=Full+Metal+Jacket+%281987%29+DVDRip+XviD+AC3+peaSoup&amp;tr=udp%3A%2F%2Ftracker.openbittorrent.com%3A80&amp;tr=udp%3A%2F%2Fopen.demonii.com%3A1337&amp;tr=udp%3A%2F%2Ftracker.coppersurfer.tk%3A6969&amp;tr=udp%3A%2F%2Fexodus.desync.com%3A6969","seeders":16,"leechers":5,"uploader":"peaSoup","files":-1,"time":1380060561,"description":"Storyline\n\nA two-segment look at the effect of the military mindset and war itself on Vietnam era Marines. The first half follows a group of recruits in boot camp under the command of the punishing Gunnery Sergeant Hartman. The second half shows one of those recruits, Joker, covering the war as a correspondent for Stars and Stripes, focusing on the Tet offensive.                                                      &lt;a href=&quot; http://imageshack.us/a/img163/4124/vdo7.jpg&quot; rel=&quot;nofollow&quot; target=&quot;_NEW&quot;&gt; http://imageshack.us/a/img163/4124/vdo7.jpg&lt;/a&gt;                                         &lt;a href=&quot; http://imageshack.us/a/img716/5906/ryl3.jpg&quot; rel=&quot;nofollow&quot; target=&quot;_NEW&quot;&gt; http://imageshack.us/a/img716/5906/ryl3.jpg&lt;/a&gt;                                         &lt;a href=&quot; http://imageshack.us/a/img196/4384/gvuc.jpg&quot; rel=&quot;nofollow&quot; target=&quot;_NEW&quot;&gt; http://imageshack.us/a/img196/4384/gvuc.jpg&lt;/a&gt;                                         &lt;a href=&quot; http://imageshack.us/a/img812/2131/whny.jpg&quot; rel=&quot;nofollow&quot; target=&quot;_NEW&quot;&gt; http://imageshack.us/a/img812/2131/whny.jpg&lt;/a&gt;                                         &lt;a href=&quot; http://imageshack.us/a/img842/3849/8kky.jpg&quot; rel=&quot;nofollow&quot; target=&quot;_NEW&quot;&gt; http://imageshack.us/a/img842/3849/8kky.jpg&lt;/a&gt;                                          Format                                   : AVI\nFormat/Info                              : Audio Video Interleave\nFile size                                : 700 MiB\nDuration                                 : 1h 53mn\nOverall bit rate                         : 863 Kbps\nWriting application                      : VirtualDubMod 1.5.4.1 (build 2178/release)\nWriting library                          : VirtualDubMod build 2178/release\n\nVideo\nID                                       : 0\nFormat                                   : MPEG-4 Visual\nFormat profile                           : Advanced Simple@L5\nFormat settings, BVOP                    : 1\nFormat settings, QPel                    : No\nFormat settings, GMC                     : No warppoints\nFormat settings, Matrix                  : Custom\nCodec ID                                 : XVID\nCodec ID/Hint                            : XviD\nDuration                                 : 1h 53mn\nBit rate                                 : 477 Kbps\nWidth                                    : 720 pixels\nHeight                                   : 544 pixels\nDisplay aspect ratio                     : 4:3\nFrame rate                               : 25.000 fps\nColor space                              : YUV\nChroma subsampling                       : 4:2:0\nBit depth                                : 8 bits\nScan type                                : Progressive\nCompression mode                         : Lossy\nBits/(Pixel*Frame)                       : 0.049\nStream size                              : 387 MiB (55%)\nWriting library                          : XviD 1.2.1 (UTC 2008-12-04)\n\nAudio\nID                                       : 1\nFormat                                   : AC-3\nFormat/Info                              : Audio Coding 3\nMode extension                           : CM (complete main)\nFormat settings, Endianness              : Big\nCodec ID                                 : 2000\nDuration                                 : 1h 51mn\nBit rate mode                            : Constant\nBit rate                                 : 384 Kbps\nChannel(s)                               : 6 channels\nChannel positions                        : Front: L C R, Side: L R, LFE\nSampling rate                            : 48.0 KHz\nBit depth                                : 16 bits\nCompression mode                         : Lossy\nStream size                              : 308 MiB (44%)\nAlignment                                : Split accross interleaves\nInterleave, duration                     : 97 ms (2.43 video frames)\nInterleave, preload duration             : 96 ms\nLanguage                                 : English\n\n","torrent":{"xt":"urn:btih:cfc5743633dff568b0956cfe5c0f8086b1b29273","amp;dn":"Full+Metal+Jacket+%281987%29+DVDRip+XviD+AC3+peaSoup","amp;tr":["udp%3A%2F%2Ftracker.openbittorrent.com%3A80","udp%3A%2F%2Fopen.demonii.com%3A1337","udp%3A%2F%2Ftracker.coppersurfer.tk%3A6969","udp%3A%2F%2Fexodus.desync.com%3A6969"],"infoHash":"cfc5743633dff568b0956cfe5c0f8086b1b29273","infoHashBuffer":{"type":"Buffer","data":[207,197,116,54,51,223,245,104,176,149,108,254,92,15,128,134,177,178,146,115]},"announce":[],"urlList":[]}}